<svg width="48" height="48" viewBox="0 0 48 48" fill="none" xmlns="http://www.w3.org/2000/svg">
<path d="M16.5 3V7.5" stroke="#B0A48A" stroke-width="3" stroke-linecap="round" stroke-linejoin="round"/>
<path d="M24 3V7.5" stroke="#B0A48A" stroke-width="3" stroke-linecap="round" stroke-linejoin="round"/>
<path d="M31.5 3V7.5" stroke="#B0A48A" stroke-width="3" stroke-linecap="round" stroke-linejoin="round"/>
<path d="M9.75004 15H38.25C38.6479 15 39.0294 15.158 39.3107 15.4393C39.592 15.7206 39.75 16.1022 39.75 16.5V34.5C39.7525 35.0916 39.6378 35.6779 39.4126 36.225C39.1873 36.7721 38.8559 37.2692 38.4376 37.6875C38.0192 38.1059 37.5221 38.4372 36.975 38.6625C36.428 38.8878 35.8417 39.0025 35.25 39H12.75C12.1584 39.0025 11.5721 38.8878 11.025 38.6625C10.4779 38.4372 9.98089 38.1059 9.56253 37.6875C9.14417 37.2692 8.8128 36.7721 8.58753 36.225C8.36226 35.6779 8.24756 35.0916 8.25004 34.5V16.5C8.25004 16.1022 8.40807 15.7206 8.68938 15.4393C8.97068 15.158 9.35221 15 9.75004 15Z" stroke="#B0A48A" stroke-width="3" stroke-linecap="round" stroke-linejoin="round"/>
<path d="M45.75 18L39.75 22.5" stroke="#B0A48A" stroke-width="3" stroke-linecap="round" stroke-linejoin="round"/>
<path d="M2.25 18L8.25 22.5" stroke="#B0A48A" stroke-width="3" stroke-linecap="round" stroke-linejoin="round"/>
</svg>
