<svg width="64" height="64" viewBox="0 0 64 64" fill="none" xmlns="http://www.w3.org/2000/svg">
<path opacity="0.2" d="M52 8V48H18C16.4087 48 14.8826 48.6321 13.7574 49.7574C12.6321 50.8826 12 52.4087 12 54V14C12 12.4087 12.6321 10.8826 13.7574 9.75736C14.8826 8.63214 16.4087 8 18 8H28V32L36 26L44 32V8H52Z" fill="#321227"/>
<path d="M52 6H18C15.8783 6 13.8434 6.84285 12.3431 8.34315C10.8429 9.84344 10 11.8783 10 14V56C10 56.5304 10.2107 57.0391 10.5858 57.4142C10.9609 57.7893 11.4696 58 12 58H48C48.5304 58 49.0391 57.7893 49.4142 57.4142C49.7893 57.0391 50 56.5304 50 56C50 55.4696 49.7893 54.9609 49.4142 54.5858C49.0391 54.2107 48.5304 54 48 54H14C14 52.9391 14.4214 51.9217 15.1716 51.1716C15.9217 50.4214 16.9391 50 18 50H52C52.5304 50 53.0391 49.7893 53.4142 49.4142C53.7893 49.0391 54 48.5304 54 48V8C54 7.46957 53.7893 6.96086 53.4142 6.58579C53.0391 6.21071 52.5304 6 52 6ZM30 10H42V28L37.1975 24.4C36.8513 24.1404 36.4302 24 35.9975 24C35.5648 24 35.1437 24.1404 34.7975 24.4L30 28V10ZM50 46H18C16.5954 45.9981 15.2153 46.3681 14 47.0725V14C14 12.9391 14.4214 11.9217 15.1716 11.1716C15.9217 10.4214 16.9391 10 18 10H26V32C26 32.3714 26.1034 32.7355 26.2987 33.0515C26.494 33.3674 26.7734 33.6227 27.1056 33.7889C27.4378 33.955 27.8097 34.0253 28.1796 33.9919C28.5495 33.9586 28.9029 33.8229 29.2 33.6L36 28.5L42.8025 33.6C43.148 33.8591 43.5681 33.9995 44 34C44.3105 33.9995 44.6167 33.9277 44.895 33.79C45.2273 33.6237 45.5067 33.3682 45.7018 33.052C45.897 32.7358 46.0003 32.3716 46 32V10H50V46Z" fill="#321227"/>
</svg>
