<svg width="64" height="64" viewBox="0 0 64 64" fill="none" xmlns="http://www.w3.org/2000/svg">
<path opacity="0.2" d="M60 31C60.0008 33.4822 59.2318 35.9035 57.799 37.9304C56.3663 39.9574 54.3402 41.4901 52 42.3175V44C52 46.6522 50.9464 49.1957 49.0711 51.0711C47.1957 52.9464 44.6522 54 42 54C39.3478 54 36.8043 52.9464 34.9289 51.0711C33.0536 49.1957 32 46.6522 32 44C32 46.6522 30.9464 49.1957 29.0711 51.0711C27.1957 52.9464 24.6522 54 22 54C19.3478 54 16.8043 52.9464 14.9289 51.0711C13.0536 49.1957 12 46.6522 12 44V42.3175C9.65777 41.4919 7.62939 39.9599 6.19459 37.9329C4.75979 35.9058 3.98926 33.4835 3.98926 31C3.98926 28.5165 4.75979 26.0942 6.19459 24.0671C7.62939 22.0401 9.65777 20.5081 12 19.6825V18C12 15.3478 13.0536 12.8043 14.9289 10.9289C16.8043 9.05357 19.3478 8 22 8C24.6522 8 27.1957 9.05357 29.0711 10.9289C30.9464 12.8043 32 15.3478 32 18C32 15.3478 33.0536 12.8043 34.9289 10.9289C36.8043 9.05357 39.3478 8 42 8C44.6522 8 47.1957 9.05357 49.0711 10.9289C50.9464 12.8043 52 15.3478 52 18V19.6825C54.3402 20.5099 56.3663 22.0426 57.799 24.0696C59.2318 26.0965 60.0008 28.5178 60 31Z" fill="#321227"/>
<path d="M62 31C61.9974 28.3508 61.2446 25.7565 59.8288 23.5174C58.413 21.2783 56.3921 19.4858 54 18.3475V18C53.9977 15.423 53.1659 12.9153 51.6277 10.8478C50.0895 8.78028 47.9265 7.26286 45.459 6.52007C42.9914 5.77727 40.3502 5.84855 37.9263 6.72336C35.5024 7.59817 33.4245 9.23004 32 11.3775C30.5755 9.23004 28.4976 7.59817 26.0737 6.72336C23.6498 5.84855 21.0086 5.77727 18.541 6.52007C16.0735 7.26286 13.9105 8.78028 12.3723 10.8478C10.8341 12.9153 10.0023 15.423 10 18V18.3475C7.60584 19.4827 5.58299 21.274 4.16652 23.5133C2.75005 25.7526 1.99812 28.3478 1.99812 30.9975C1.99812 33.6472 2.75005 36.2424 4.16652 38.4817C5.58299 40.721 7.60584 42.5123 10 43.6475V44C10.0023 46.577 10.8341 49.0847 12.3723 51.1522C13.9105 53.2197 16.0735 54.7371 18.541 55.4799C21.0086 56.2227 23.6498 56.1515 26.0737 55.2766C28.4976 54.4018 30.5755 52.77 32 50.6225C33.4245 52.77 35.5024 54.4018 37.9263 55.2766C40.3502 56.1515 42.9914 56.2227 45.459 55.4799C47.9265 54.7371 50.0895 53.2197 51.6277 51.1522C53.1659 49.0847 53.9977 46.577 54 44V43.6475C56.3917 42.51 58.4125 40.7185 59.8283 38.4802C61.244 36.2419 61.997 33.6485 62 31ZM22 52C20.0274 51.9997 18.1244 51.2706 16.6566 49.9528C15.1887 48.6349 14.2596 46.8212 14.0475 44.86C14.6943 44.9523 15.3467 44.9991 16 45H18C18.5304 45 19.0391 44.7893 19.4142 44.4142C19.7893 44.0391 20 43.5304 20 43C20 42.4696 19.7893 41.9609 19.4142 41.5858C19.0391 41.2107 18.5304 41 18 41H16C13.6389 41.0028 11.353 40.17 9.54694 38.6491C7.74091 37.1282 6.53128 35.0174 6.13219 32.6902C5.73311 30.3631 6.17033 27.9698 7.36644 25.9341C8.56255 23.8984 10.4404 22.3516 12.6675 21.5675C13.0572 21.4295 13.3945 21.1742 13.6332 20.8366C13.8718 20.4991 13.9999 20.0959 14 19.6825V18C14 15.8783 14.8429 13.8434 16.3431 12.3431C17.8434 10.8429 19.8783 10 22 10C24.1217 10 26.1566 10.8429 27.6569 12.3431C29.1571 13.8434 30 15.8783 30 18V35.065C27.8038 33.0897 24.9538 31.9978 22 32C21.4696 32 20.9609 32.2107 20.5858 32.5858C20.2107 32.9609 20 33.4696 20 34C20 34.5304 20.2107 35.0391 20.5858 35.4142C20.9609 35.7893 21.4696 36 22 36C24.1217 36 26.1566 36.8429 27.6569 38.3431C29.1571 39.8434 30 41.8783 30 44C30 46.1217 29.1571 48.1566 27.6569 49.6569C26.1566 51.1571 24.1217 52 22 52ZM48 41H46C45.4696 41 44.9609 41.2107 44.5858 41.5858C44.2107 41.9609 44 42.4696 44 43C44 43.5304 44.2107 44.0391 44.5858 44.4142C44.9609 44.7893 45.4696 45 46 45H48C48.6533 44.9991 49.3057 44.9523 49.9525 44.86C49.7863 46.3967 49.1786 47.8523 48.2028 49.0509C47.2269 50.2495 45.9247 51.1398 44.4537 51.6141C42.9826 52.0883 41.4057 52.1263 39.9135 51.7234C38.4213 51.3205 37.0778 50.494 36.0453 49.3437C35.0129 48.1935 34.3358 46.7688 34.0958 45.2419C33.8559 43.715 34.0634 42.1513 34.6933 40.7399C35.3231 39.3284 36.3484 38.1296 37.6451 37.2885C38.9418 36.4473 40.4544 35.9998 42 36C42.5304 36 43.0391 35.7893 43.4142 35.4142C43.7893 35.0391 44 34.5304 44 34C44 33.4696 43.7893 32.9609 43.4142 32.5858C43.0391 32.2107 42.5304 32 42 32C39.0462 31.9978 36.1962 33.0897 34 35.065V18C34 15.8783 34.8429 13.8434 36.3431 12.3431C37.8434 10.8429 39.8783 10 42 10C44.1217 10 46.1566 10.8429 47.6569 12.3431C49.1571 13.8434 50 15.8783 50 18V19.6825C50.0001 20.0959 50.1282 20.4991 50.3668 20.8366C50.6055 21.1742 50.9428 21.4295 51.3325 21.5675C53.5596 22.3516 55.4375 23.8984 56.6336 25.9341C57.8297 27.9698 58.2669 30.3631 57.8678 32.6902C57.4687 35.0174 56.2591 37.1282 54.4531 38.6491C52.647 40.17 50.3611 41.0028 48 41ZM52 28C52 28.5304 51.7893 29.0391 51.4142 29.4142C51.0391 29.7893 50.5304 30 50 30H49C46.6131 30 44.3239 29.0518 42.636 27.364C40.9482 25.6761 40 23.3869 40 21V20C40 19.4696 40.2107 18.9609 40.5858 18.5858C40.9609 18.2107 41.4696 18 42 18C42.5304 18 43.0391 18.2107 43.4142 18.5858C43.7893 18.9609 44 19.4696 44 20V21C44 22.3261 44.5268 23.5979 45.4645 24.5355C46.4021 25.4732 47.6739 26 49 26H50C50.5304 26 51.0391 26.2107 51.4142 26.5858C51.7893 26.9609 52 27.4696 52 28ZM15 30H14C13.4696 30 12.9609 29.7893 12.5858 29.4142C12.2107 29.0391 12 28.5304 12 28C12 27.4696 12.2107 26.9609 12.5858 26.5858C12.9609 26.2107 13.4696 26 14 26H15C16.3261 26 17.5978 25.4732 18.5355 24.5355C19.4732 23.5979 20 22.3261 20 21V20C20 19.4696 20.2107 18.9609 20.5858 18.5858C20.9609 18.2107 21.4696 18 22 18C22.5304 18 23.0391 18.2107 23.4142 18.5858C23.7893 18.9609 24 19.4696 24 20V21C24 23.3869 23.0518 25.6761 21.364 27.364C19.6761 29.0518 17.3869 30 15 30Z" fill="#321227"/>
</svg>
