<svg width="64" height="64" viewBox="0 0 64 64" fill="none" xmlns="http://www.w3.org/2000/svg">
<path opacity="0.2" d="M54 12V25.9425C54 43.65 44.15 58 32 58C19.85 58 10 43.65 10 25.9475V12C9.99958 11.6748 10.0785 11.3544 10.2298 11.0665C10.3812 10.7787 10.6005 10.5321 10.8687 10.3482C11.1369 10.1642 11.4459 10.0484 11.7689 10.0108C12.0919 9.97325 12.4193 10.015 12.7225 10.1325C16.5 11.6025 23.7775 13.9275 32 13.9275C40.2225 13.9275 47.5 11.6025 51.2775 10.1375C51.5804 10.0202 51.9072 9.97836 52.2299 10.0157C52.5525 10.053 52.8612 10.1684 53.1293 10.3517C53.3973 10.5351 53.6167 10.781 53.7684 11.0682C53.9201 11.3554 53.9996 11.6752 54 12Z" fill="#321227"/>
<path d="M54.25 8.70002C53.7141 8.33197 53.0964 8.1006 52.4506 8.02608C51.8048 7.95157 51.1506 8.03617 50.545 8.27252C47.0375 9.63752 39.955 11.9275 32 11.9275C24.045 11.9275 16.96 9.63752 13.4475 8.27252C12.8415 8.03727 12.1872 7.95327 11.5414 8.0278C10.8956 8.10234 10.2777 8.33316 9.74116 8.70027C9.20464 9.06739 8.76568 9.55975 8.46229 10.1347C8.15891 10.7097 8.00023 11.3499 8 12V25.9425C8 34.9025 10.4125 43.355 14.795 49.7375C19.335 56.3525 25.445 59.9875 32 59.9875C38.555 59.9875 44.665 56.345 49.205 49.7375C53.5875 43.36 56 34.9075 56 25.9475V12C55.9988 11.3491 55.8388 10.7083 55.5339 10.1332C55.2289 9.55813 54.7882 9.06617 54.25 8.70002ZM52 25.95C52 34.11 49.835 41.7575 45.9075 47.4825C42.135 52.975 37.1975 56 32 56C26.8025 56 21.865 52.975 18.0925 47.48C14.165 41.75 12 34.1075 12 25.9475V12C15.7775 13.4675 23.395 15.9275 32 15.9275C40.605 15.9275 48.225 13.4675 52 12V25.9525V25.95ZM47.5 30.6675C47.8534 31.0653 48.0343 31.5873 48.0029 32.1185C47.9715 32.6497 47.7303 33.1466 47.3325 33.5C46.9347 33.8534 46.4128 34.0343 45.8816 34.0029C45.3504 33.9715 44.8534 33.7303 44.5 33.3325C43.83 32.5825 42.2875 32 41 32C39.7125 32 38.16 32.585 37.5 33.3325C37.1463 33.7303 36.649 33.9714 36.1176 34.0025C35.5861 34.0337 35.0641 33.8525 34.6662 33.4988C34.2684 33.145 34.0274 32.6478 33.9962 32.1163C33.9651 31.5849 34.1463 31.0628 34.5 30.665C35.9275 29.07 38.535 28 41 28C43.465 28 46.0625 29.07 47.5 30.665V30.6675ZM23 32C21.7025 32 20.16 32.585 19.5 33.3325C19.1463 33.7303 18.649 33.9714 18.1176 34.0025C17.5861 34.0337 17.0641 33.8525 16.6663 33.4988C16.2684 33.145 16.0274 32.6478 15.9962 32.1163C15.9651 31.5849 16.1463 31.0628 16.5 30.665C17.9375 29.07 20.545 28 23 28C25.455 28 28.0625 29.07 29.5 30.665C29.8537 31.0628 30.0349 31.5849 30.0038 32.1163C29.9726 32.6478 29.7316 33.145 29.3337 33.4988C29.1368 33.6739 28.9072 33.8086 28.6582 33.895C28.4092 33.9814 28.1456 34.018 27.8824 34.0025C27.351 33.9714 26.8537 33.7303 26.5 33.3325C25.84 32.585 24.2975 32 23 32ZM42.1125 43.2975C40.8711 44.7705 39.3229 45.9545 37.5761 46.7667C35.8294 47.5789 33.9263 47.9997 32 47.9997C30.0737 47.9997 28.1706 47.5789 26.4239 46.7667C24.6771 45.9545 23.1289 44.7705 21.8875 43.2975C21.7169 43.0978 21.5874 42.8663 21.5063 42.6165C21.4252 42.3667 21.394 42.1033 21.4147 41.8414C21.4354 41.5796 21.5074 41.3244 21.6267 41.0903C21.746 40.8563 21.9102 40.6481 22.11 40.4775C22.3098 40.307 22.5412 40.1774 22.791 40.0963C23.0409 40.0152 23.3042 39.9841 23.5661 40.0047C23.8279 40.0254 24.0832 40.0974 24.3172 40.2167C24.5512 40.336 24.7594 40.5003 24.93 40.7C25.7956 41.7334 26.8773 42.5645 28.0988 43.1348C29.3203 43.705 30.6519 44.0006 32 44.0006C33.3481 44.0006 34.6797 43.705 35.9012 43.1348C37.1227 42.5645 38.2044 41.7334 39.07 40.7C39.2406 40.5003 39.4488 40.336 39.6828 40.2167C39.9168 40.0974 40.1721 40.0254 40.4339 40.0047C40.6958 39.9841 40.9591 40.0152 41.209 40.0963C41.4588 40.1774 41.6902 40.307 41.89 40.4775C42.0898 40.6481 42.254 40.8563 42.3733 41.0903C42.4926 41.3244 42.5646 41.5796 42.5853 41.8414C42.606 42.1033 42.5748 42.3667 42.4937 42.6165C42.4126 42.8663 42.2831 43.0978 42.1125 43.2975Z" fill="#321227"/>
</svg>
