<svg width="64" height="64" viewBox="0 0 64 64" fill="none" xmlns="http://www.w3.org/2000/svg">
<path opacity="0.2" d="M52 32V50C52 50.5304 51.7893 51.0391 51.4142 51.4142C51.0391 51.7893 50.5304 52 50 52H14C13.4696 52 12.9609 51.7893 12.5858 51.4142C12.2107 51.0391 12 50.5304 12 50V32H52Z" fill="#EC5870"/>
<path d="M54 18H45.23C45.3275 17.9175 45.4275 17.8375 45.5225 17.75C46.2818 17.0754 46.8937 16.2515 47.32 15.3296C47.7463 14.4078 47.9778 13.4079 48 12.3925C48.0328 11.2817 47.8383 10.1759 47.4283 9.14296C47.0183 8.11005 46.4016 7.17183 45.6159 6.38591C44.8302 5.59998 43.8922 4.98294 42.8594 4.57265C41.8266 4.16236 40.7208 3.96749 39.61 4C38.5942 4.02188 37.5938 4.25321 36.6715 4.67951C35.7492 5.10582 34.9248 5.71792 34.25 6.4775C33.3162 7.55973 32.5571 8.7811 32 10.0975C31.4429 8.7811 30.6838 7.55973 29.75 6.4775C29.0752 5.71792 28.2508 5.10582 27.3285 4.67951C26.4062 4.25321 25.4058 4.02188 24.39 4C23.2792 3.96749 22.1734 4.16236 21.1406 4.57265C20.1078 4.98294 19.1698 5.59998 18.3841 6.38591C17.5984 7.17183 16.9817 8.11005 16.5717 9.14296C16.1617 10.1759 15.9672 11.2817 16 12.3925C16.0222 13.4079 16.2537 14.4078 16.68 15.3296C17.1063 16.2515 17.7182 17.0754 18.4775 17.75C18.5725 17.8325 18.6725 17.9125 18.77 18H10C8.93913 18 7.92172 18.4214 7.17157 19.1716C6.42143 19.9217 6 20.9391 6 22V30C6 31.0609 6.42143 32.0783 7.17157 32.8284C7.92172 33.5786 8.93913 34 10 34V50C10 51.0609 10.4214 52.0783 11.1716 52.8284C11.9217 53.5786 12.9391 54 14 54H50C51.0609 54 52.0783 53.5786 52.8284 52.8284C53.5786 52.0783 54 51.0609 54 50V34C55.0609 34 56.0783 33.5786 56.8284 32.8284C57.5786 32.0783 58 31.0609 58 30V22C58 20.9391 57.5786 19.9217 56.8284 19.1716C56.0783 18.4214 55.0609 18 54 18ZM37.25 9.1275C37.5667 8.7778 37.9522 8.49734 38.3824 8.30375C38.8127 8.11015 39.2783 8.00758 39.75 8.0025H39.8725C40.4254 8.00595 40.9721 8.11973 41.4805 8.33717C41.9889 8.55461 42.4487 8.87134 42.8331 9.26878C43.2175 9.66623 43.5188 10.1364 43.7191 10.6518C43.9195 11.1671 44.015 11.7173 44 12.27C43.9949 12.7417 43.8923 13.2073 43.6987 13.6376C43.5051 14.0678 43.2247 14.4533 42.875 14.77C40.5025 16.87 36.565 17.61 34.125 17.87C34.425 15.2225 35.25 11.375 37.25 9.1275ZM21.2275 9.2175C22.0024 8.44272 23.0518 8.00517 24.1475 8H24.27C24.7417 8.00508 25.2073 8.10765 25.6376 8.30125C26.0678 8.49484 26.4533 8.7753 26.77 9.125C28.8675 11.495 29.6075 15.425 29.8675 17.855C27.4375 17.605 23.5075 16.855 21.1375 14.7575C20.7878 14.4408 20.5073 14.0553 20.3137 13.6251C20.1202 13.1948 20.0176 12.7292 20.0125 12.2575C19.997 11.6956 20.0958 11.1364 20.3029 10.6138C20.5101 10.0912 20.8212 9.61619 21.2175 9.2175H21.2275ZM10 22H30V30H10V22ZM14 34H30V50H14V34ZM50 50H34V34H50V50ZM54 30H34V22H54V30Z" fill="#464553"/>
</svg>
