<svg width="64" height="64" viewBox="0 0 64 64" fill="none" xmlns="http://www.w3.org/2000/svg">
<path d="M52 32V50C52 50.5304 51.7893 51.0391 51.4142 51.4142C51.0391 51.7893 50.5304 52 50 52H14C13.4696 52 12.9609 51.7893 12.5858 51.4142C12.2107 51.0391 12 50.5304 12 50V32H52Z" fill="#5F5F5F"/>
<path d="M54 20H10C8.89543 20 8 20.8954 8 22V30C8 31.1046 8.89543 32 10 32H54C55.1046 32 56 31.1046 56 30V22C56 20.8954 55.1046 20 54 20Z" stroke="black" stroke-width="2" stroke-linecap="round" stroke-linejoin="round"/>
<path d="M52 32V50C52 50.5304 51.7893 51.0391 51.4142 51.4142C51.0391 51.7893 50.5304 52 50 52H14C13.4696 52 12.9609 51.7893 12.5858 51.4142C12.2107 51.0391 12 50.5304 12 50V32" stroke="black" stroke-width="2" stroke-linecap="round" stroke-linejoin="round"/>
<path d="M32 20V52" stroke="black" stroke-width="2" stroke-linecap="round" stroke-linejoin="round"/>
<path d="M43.325 17.175C40.475 20 32 20 32 20C32 20 32 11.525 34.825 8.67496C35.9522 7.54779 37.4809 6.91455 39.075 6.91455C40.6691 6.91455 42.1978 7.54779 43.325 8.67496C44.4522 9.80213 45.0854 11.3309 45.0854 12.925C45.0854 14.519 44.4522 16.0478 43.325 17.175Z" stroke="black" stroke-width="2" stroke-linecap="round" stroke-linejoin="round"/>
<path d="M20.675 17.175C23.525 20 32 20 32 20C32 20 32 11.525 29.175 8.67496C28.0478 7.54779 26.519 6.91455 24.925 6.91455C23.3309 6.91455 21.8021 7.54779 20.675 8.67496C19.5478 9.80213 18.9146 11.3309 18.9146 12.925C18.9146 14.519 19.5478 16.0478 20.675 17.175Z" stroke="black" stroke-width="2" stroke-linecap="round" stroke-linejoin="round"/>
</svg>
