<svg width="128" height="128" viewBox="0 0 128 128" fill="none" xmlns="http://www.w3.org/2000/svg">
<path opacity="0.2" d="M108 24V44H20V24C20 22.9391 20.4214 21.9217 21.1716 21.1716C21.9217 20.4214 22.9391 20 24 20H104C105.061 20 106.078 20.4214 106.828 21.1716C107.579 21.9217 108 22.9391 108 24Z" fill="#53616C"/>
<path d="M104 16H92V12C92 10.9391 91.5786 9.92172 90.8284 9.17157C90.0783 8.42143 89.0609 8 88 8C86.9391 8 85.9217 8.42143 85.1716 9.17157C84.4214 9.92172 84 10.9391 84 12V16H44V12C44 10.9391 43.5786 9.92172 42.8284 9.17157C42.0783 8.42143 41.0609 8 40 8C38.9391 8 37.9217 8.42143 37.1716 9.17157C36.4214 9.92172 36 10.9391 36 12V16H24C21.8783 16 19.8434 16.8429 18.3431 18.3431C16.8429 19.8434 16 21.8783 16 24V104C16 106.122 16.8429 108.157 18.3431 109.657C19.8434 111.157 21.8783 112 24 112H104C106.122 112 108.157 111.157 109.657 109.657C111.157 108.157 112 106.122 112 104V24C112 21.8783 111.157 19.8434 109.657 18.3431C108.157 16.8429 106.122 16 104 16ZM36 24V28C36 29.0609 36.4214 30.0783 37.1716 30.8284C37.9217 31.5786 38.9391 32 40 32C41.0609 32 42.0783 31.5786 42.8284 30.8284C43.5786 30.0783 44 29.0609 44 28V24H84V28C84 29.0609 84.4214 30.0783 85.1716 30.8284C85.9217 31.5786 86.9391 32 88 32C89.0609 32 90.0783 31.5786 90.8284 30.8284C91.5786 30.0783 92 29.0609 92 28V24H104V40H24V24H36ZM104 104H24V48H104V104ZM56 60V92C56 93.0609 55.5786 94.0783 54.8284 94.8284C54.0783 95.5786 53.0609 96 52 96C50.9391 96 49.9217 95.5786 49.1716 94.8284C48.4214 94.0783 48 93.0609 48 92V66.47L45.79 67.58C44.8405 68.0547 43.7414 68.1329 42.7343 67.7972C41.7272 67.4615 40.8947 66.7395 40.42 65.79C39.9453 64.8405 39.8671 63.7413 40.2028 62.7343C40.5385 61.7272 41.2605 60.8947 42.21 60.42L50.21 56.42C50.8201 56.1147 51.4981 55.9705 52.1796 56.0012C52.861 56.0318 53.5234 56.2362 54.1036 56.5949C54.6838 56.9537 55.1627 57.4549 55.4946 58.0509C55.8265 58.6469 56.0005 59.3178 56 60ZM85.58 75.225L76 88H84C85.0609 88 86.0783 88.4214 86.8284 89.1716C87.5786 89.9217 88 90.9391 88 92C88 93.0609 87.5786 94.0783 86.8284 94.8284C86.0783 95.5786 85.0609 96 84 96H68C67.2572 96 66.529 95.7931 65.8971 95.4026C65.2652 95.0121 64.7545 94.4533 64.4223 93.7889C64.0901 93.1244 63.9494 92.3806 64.0162 91.6408C64.0829 90.9009 64.3543 90.1943 64.8 89.6L79.19 70.415C79.5173 69.9793 79.7521 69.4812 79.88 68.9515C80.008 68.4217 80.0263 67.8714 79.9338 67.3343C79.8414 66.7972 79.6402 66.2847 79.3426 65.8281C79.045 65.3716 78.6572 64.9807 78.2031 64.6794C77.7489 64.3782 77.238 64.1728 76.7017 64.0761C76.1654 63.9794 75.6149 63.9933 75.0842 64.117C74.5534 64.2406 74.0535 64.4714 73.6151 64.7952C73.1768 65.1191 72.8092 65.529 72.535 66C72.2801 66.4694 71.9338 66.883 71.5164 67.2164C71.0991 67.5498 70.6192 67.7962 70.1051 67.9412C69.591 68.0861 69.0531 68.1266 68.523 68.0602C67.993 67.9939 67.4817 67.8221 67.0191 67.5549C66.5566 67.2877 66.1522 66.9306 65.83 66.5047C65.5077 66.0787 65.274 65.5925 65.1426 65.0747C65.0113 64.557 64.985 64.0182 65.0652 63.4901C65.1455 62.962 65.3307 62.4553 65.61 62C66.9313 59.7134 68.97 57.9266 71.4101 56.9165C73.8501 55.9064 76.5553 55.7294 79.1061 56.413C81.657 57.0965 83.9111 58.6025 85.5191 60.6974C87.1271 62.7923 87.9991 65.3591 88 68C88.0085 70.6087 87.1581 73.1477 85.58 75.225Z" fill="#1F2022"/>
</svg>
