<svg width="64" height="64" viewBox="0 0 64 64" fill="none" xmlns="http://www.w3.org/2000/svg">
<path d="M60 14V30C60 30.5304 59.7893 31.0391 59.4142 31.4142C59.0392 31.7893 58.5304 32 58 32C57.4696 32 56.9609 31.7893 56.5858 31.4142C56.2107 31.0391 56 30.5304 56 30V18.8275L35.415 39.415C35.2293 39.601 35.0087 39.7485 34.7659 39.8491C34.5231 39.9498 34.2628 40.0016 34 40.0016C33.7372 40.0016 33.4769 39.9498 33.2341 39.8491C32.9913 39.7485 32.7708 39.601 32.585 39.415L24 30.8275L7.41501 47.415C7.03973 47.7903 6.53074 48.0011 6.00001 48.0011C5.46929 48.0011 4.96029 47.7903 4.58501 47.415C4.20973 47.0397 3.9989 46.5307 3.9989 46C3.9989 45.4693 4.20973 44.9603 4.58501 44.585L22.585 26.585C22.7708 26.399 22.9913 26.2515 23.2341 26.1509C23.4769 26.0502 23.7372 25.9984 24 25.9984C24.2628 25.9984 24.5231 26.0502 24.7659 26.1509C25.0087 26.2515 25.2293 26.399 25.415 26.585L34 35.1725L53.1725 16H42C41.4696 16 40.9609 15.7893 40.5858 15.4142C40.2107 15.0391 40 14.5304 40 14C40 13.4696 40.2107 12.9609 40.5858 12.5858C40.9609 12.2107 41.4696 12 42 12H58C58.5304 12 59.0392 12.2107 59.4142 12.5858C59.7893 12.9609 60 13.4696 60 14Z" fill="#3E1E68"/>
</svg>
