<svg width="64" height="64" viewBox="0 0 64 64" fill="none" xmlns="http://www.w3.org/2000/svg">
<path d="M36 39.42C39.1352 37.4673 41.5492 34.5465 42.8767 31.0997C44.2041 27.6528 44.3729 23.8674 43.3574 20.3161C42.3419 16.7648 40.1974 13.6409 37.2483 11.4169C34.2993 9.19297 30.7061 7.98999 27.0125 7.98999C23.3189 7.98999 19.7257 9.19297 16.7767 11.4169C13.8276 13.6409 11.6831 16.7648 10.6676 20.3161C9.65212 23.8674 9.82087 27.6528 11.1483 31.0997C12.4758 34.5465 14.8898 37.4673 18.025 39.42C12.8625 41.11 8.2175 44.2675 4.4825 48.7125C4.3075 48.9126 4.17415 49.1456 4.09025 49.3979C4.00635 49.6501 3.97359 49.9166 3.99386 50.1816C4.01414 50.4467 4.08706 50.7051 4.20836 50.9416C4.32966 51.1782 4.4969 51.3882 4.7003 51.5593C4.90371 51.7305 5.1392 51.8594 5.393 51.9385C5.6468 52.0176 5.91383 52.0453 6.17846 52.02C6.4431 51.9947 6.70003 51.9169 6.93424 51.7911C7.16845 51.6653 7.37523 51.4941 7.5425 51.2875C12.5625 45.2975 19.4775 42 27 42C34.5225 42 41.4375 45.2975 46.4675 51.2875C46.809 51.6939 47.2979 51.9481 47.8268 51.994C48.3556 52.04 48.8811 51.874 49.2875 51.5325C49.6939 51.191 49.9481 50.7021 49.994 50.1732C50.04 49.6444 49.874 49.1189 49.5325 48.7125C45.795 44.2675 41.15 41.11 36 39.42ZM14 25C14 22.4288 14.7624 19.9154 16.1909 17.7776C17.6194 15.6397 19.6497 13.9735 22.0251 12.9896C24.4006 12.0056 27.0144 11.7482 29.5362 12.2498C32.0579 12.7514 34.3743 13.9895 36.1924 15.8076C38.0105 17.6257 39.2486 19.9421 39.7502 22.4638C40.2518 24.9856 39.9944 27.5994 39.0104 29.9749C38.0265 32.3503 36.3603 34.3806 34.2224 35.8091C32.0846 37.2376 29.5712 38 27 38C23.5534 37.996 20.2491 36.6251 17.812 34.188C15.3749 31.7509 14.004 28.4466 14 25ZM61.0625 35.7675L59.8975 35.095C60.0342 34.3714 60.0342 33.6286 59.8975 32.905L61.0625 32.2325C61.522 31.9673 61.8573 31.5304 61.9947 31.0179C62.132 30.5055 62.0602 29.9595 61.795 29.5C61.5298 29.0405 61.0929 28.7052 60.5805 28.5678C60.068 28.4304 59.522 28.5023 59.0625 28.7675L57.895 29.4425C57.3363 28.9631 56.6938 28.5911 56 28.345V27C56 26.4696 55.7893 25.9608 55.4142 25.5858C55.0391 25.2107 54.5304 25 54 25C53.4696 25 52.9609 25.2107 52.5858 25.5858C52.2107 25.9608 52 26.4696 52 27V28.345C51.3062 28.5911 50.6637 28.9631 50.105 29.4425L48.9375 28.7675C48.71 28.6362 48.4588 28.5509 48.1984 28.5167C47.9379 28.4824 47.6733 28.4998 47.4195 28.5678C47.1658 28.6358 46.928 28.7532 46.7196 28.9131C46.5112 29.0731 46.3363 29.2725 46.205 29.5C46.0737 29.7275 45.9885 29.9787 45.9542 30.2391C45.9199 30.4996 45.9373 30.7642 46.0053 31.0179C46.0734 31.2717 46.1907 31.5095 46.3506 31.7179C46.5106 31.9263 46.71 32.1012 46.9375 32.2325L48.1025 32.905C47.9658 33.6286 47.9658 34.3714 48.1025 35.095L46.9375 35.7675C46.478 36.0327 46.1427 36.4696 46.0053 36.982C45.868 37.4945 45.9398 38.0405 46.205 38.5C46.4702 38.9595 46.9071 39.2948 47.4195 39.4322C47.932 39.5695 48.478 39.4977 48.9375 39.2325L50.105 38.5575C50.6637 39.0368 51.3062 39.4089 52 39.655V41C52 41.5304 52.2107 42.0391 52.5858 42.4142C52.9609 42.7893 53.4696 43 54 43C54.5304 43 55.0391 42.7893 55.4142 42.4142C55.7893 42.0391 56 41.5304 56 41V39.655C56.6938 39.4089 57.3363 39.0368 57.895 38.5575L59.0625 39.2325C59.3662 39.4088 59.7113 39.5011 60.0625 39.5C60.5029 39.5002 60.9311 39.355 61.2805 39.0869C61.63 38.8189 61.8812 38.443 61.9952 38.0176C62.1091 37.5922 62.0795 37.141 61.9109 36.7342C61.7422 36.3273 61.444 35.9875 61.0625 35.7675ZM52 34C52 33.6044 52.1173 33.2177 52.3371 32.8888C52.5568 32.5599 52.8692 32.3036 53.2346 32.1522C53.6001 32.0009 54.0022 31.9612 54.3902 32.0384C54.7781 32.1156 55.1345 32.3061 55.4142 32.5858C55.6939 32.8655 55.8844 33.2218 55.9616 33.6098C56.0387 33.9978 55.9991 34.3999 55.8478 34.7654C55.6964 35.1308 55.44 35.4432 55.1111 35.6629C54.7822 35.8827 54.3956 36 54 36C53.4696 36 52.9609 35.7893 52.5858 35.4142C52.2107 35.0391 52 34.5304 52 34Z" fill="#3E1E68"/>
</svg>
