<svg width="64" height="64" viewBox="0 0 64 64" fill="none" xmlns="http://www.w3.org/2000/svg">
<path opacity="0.2" d="M32 38C23.5721 38.0219 15.2897 35.8046 8 31.575V52C8 52.5304 8.21071 53.0391 8.58579 53.4142C8.96086 53.7892 9.46957 54 10 54H54C54.5304 54 55.0391 53.7892 55.4142 53.4142C55.7893 53.0391 56 52.5304 56 52V31.575C48.7057 35.7935 40.4263 38.01 32 38Z" fill="#1872A4"/>
<path d="M54 18H10C8.89543 18 8 18.8954 8 20V52C8 53.1046 8.89543 54 10 54H54C55.1046 54 56 53.1046 56 52V20C56 18.8954 55.1046 18 54 18Z" stroke="#1872A4" stroke-width="3" stroke-linecap="round" stroke-linejoin="round"/>
<path d="M42 18V14C42 12.9391 41.5786 11.9217 40.8284 11.1716C40.0783 10.4214 39.0609 10 38 10H26C24.9391 10 23.9217 10.4214 23.1716 11.1716C22.4214 11.9217 22 12.9391 22 14V18" stroke="#1872A4" stroke-width="3" stroke-linecap="round" stroke-linejoin="round"/>
<path d="M56 31.575C48.7057 35.7935 40.4263 38.01 32 38C23.5721 38.0219 15.2897 35.8046 8 31.575" stroke="#1872A4" stroke-width="3" stroke-linecap="round" stroke-linejoin="round"/>
<path d="M29 30H35" stroke="#1872A4" stroke-width="3" stroke-linecap="round" stroke-linejoin="round"/>
</svg>
