<svg width="64" height="64" viewBox="0 0 64 64" fill="none" xmlns="http://www.w3.org/2000/svg">
<path opacity="0.2" d="M56 14V23.0575C54.8252 22.0069 53.4549 21.198 51.9675 20.677C50.48 20.156 48.9045 19.9331 47.3309 20.0209C45.7573 20.1088 44.2164 20.5058 42.7962 21.1891C41.376 21.8725 40.1043 22.8289 39.0537 24.0037C38.0032 25.1786 37.1943 26.5488 36.6733 28.0363C36.1523 29.5237 35.9293 31.0992 36.0172 32.6729C36.1051 34.2465 36.502 35.7873 37.1854 37.2075C37.8688 38.6277 38.8252 39.8994 40 40.95V48H10C9.46957 48 8.96086 47.7893 8.58579 47.4142C8.21071 47.0391 8 46.5304 8 46V14C8 13.4696 8.21071 12.9609 8.58579 12.5858C8.96086 12.2107 9.46957 12 10 12H54C54.5304 12 55.0391 12.2107 55.4142 12.5858C55.7893 12.9609 56 13.4696 56 14Z" fill="#797979"/>
<path d="M62 32C62.0021 29.7032 61.4391 27.4411 60.3606 25.4133C59.2822 23.3854 57.7213 21.654 55.8157 20.3718C53.9101 19.0895 51.7184 18.2958 49.4336 18.0606C47.1489 17.8254 44.8413 18.156 42.7145 19.0231C40.5877 19.8902 38.7068 21.2673 37.2378 23.033C35.7688 24.7986 34.7568 26.8985 34.291 29.1476C33.8251 31.3967 33.9198 33.7258 34.5666 35.9297C35.2135 38.1335 36.3926 40.1444 38 41.785V56C37.9998 56.3411 38.0868 56.6766 38.2527 56.9746C38.4187 57.2726 38.6581 57.5231 38.9482 57.7025C39.2383 57.8819 39.5695 57.9841 39.9102 57.9994C40.251 58.0147 40.59 57.9426 40.895 57.79L48 54.235L55.105 57.79C55.41 57.9426 55.749 58.0147 56.0898 57.9994C56.4305 57.9841 56.7617 57.8819 57.0518 57.7025C57.3419 57.5231 57.5813 57.2726 57.7473 56.9746C57.9132 56.6766 58.0002 56.3411 58 56V41.785C60.5651 39.1742 62.0017 35.6601 62 32ZM48 22C49.9778 22 51.9112 22.5865 53.5557 23.6853C55.2002 24.7841 56.4819 26.3459 57.2388 28.1732C57.9957 30.0004 58.1937 32.0111 57.8079 33.9509C57.422 35.8907 56.4696 37.6725 55.0711 39.0711C53.6725 40.4696 51.8907 41.422 49.9509 41.8079C48.0111 42.1937 46.0004 41.9957 44.1732 41.2388C42.3459 40.4819 40.7841 39.2002 39.6853 37.5557C38.5865 35.9112 38 33.9778 38 32C38 29.3478 39.0536 26.8043 40.9289 24.9289C42.8043 23.0536 45.3478 22 48 22ZM48.895 50.21C48.6171 50.071 48.3107 49.9986 48 49.9986C47.6893 49.9986 47.3829 50.071 47.105 50.21L42 52.765V44.6475C43.8749 45.538 45.9244 46 48 46C50.0756 46 52.1251 45.538 54 44.6475V52.765L48.895 50.21ZM34 48C34 48.5304 33.7893 49.0391 33.4142 49.4142C33.0391 49.7893 32.5304 50 32 50H10C8.93913 50 7.92172 49.5786 7.17157 48.8284C6.42143 48.0783 6 47.0609 6 46V14C6 12.9391 6.42143 11.9217 7.17157 11.1716C7.92172 10.4214 8.93913 10 10 10H54C55.0609 10 56.0783 10.4214 56.8284 11.1716C57.5786 11.9217 58 12.9391 58 14C58 14.5304 57.7893 15.0391 57.4142 15.4142C57.0391 15.7893 56.5304 16 56 16C55.4696 16 54.9609 15.7893 54.5858 15.4142C54.2107 15.0391 54 14.5304 54 14H10V46H32C32.5304 46 33.0391 46.2107 33.4142 46.5858C33.7893 46.9609 34 47.4696 34 48ZM30 34C30 34.5304 29.7893 35.0391 29.4142 35.4142C29.0391 35.7893 28.5304 36 28 36H18C17.4696 36 16.9609 35.7893 16.5858 35.4142C16.2107 35.0391 16 34.5304 16 34C16 33.4696 16.2107 32.9609 16.5858 32.5858C16.9609 32.2107 17.4696 32 18 32H28C28.5304 32 29.0391 32.2107 29.4142 32.5858C29.7893 32.9609 30 33.4696 30 34ZM30 26C30 26.5304 29.7893 27.0391 29.4142 27.4142C29.0391 27.7893 28.5304 28 28 28H18C17.4696 28 16.9609 27.7893 16.5858 27.4142C16.2107 27.0391 16 26.5304 16 26C16 25.4696 16.2107 24.9609 16.5858 24.5858C16.9609 24.2107 17.4696 24 18 24H28C28.5304 24 29.0391 24.2107 29.4142 24.5858C29.7893 24.9609 30 25.4696 30 26Z" fill="#797979"/>
</svg>
