<svg width="64" height="64" viewBox="0 0 64 64" fill="none" xmlns="http://www.w3.org/2000/svg">
<path opacity="0.2" d="M52 12V54C52 54.5304 51.7893 55.0391 51.4142 55.4142C51.0391 55.7893 50.5304 56 50 56H14C13.4696 56 12.9609 55.7893 12.5858 55.4142C12.2107 55.0391 12 54.5304 12 54V12C12 11.4696 12.2107 10.9609 12.5858 10.5858C12.9609 10.2107 13.4696 10 14 10H24C22.699 11.7295 21.9969 13.8358 22 16V18H42V16C42.0031 13.8358 41.301 11.7295 40 10H50C50.5304 10 51.0391 10.2107 51.4142 10.5858C51.7893 10.9609 52 11.4696 52 12Z" fill="#797979"/>
<path d="M42 38C42 38.5304 41.7893 39.0391 41.4142 39.4142C41.0391 39.7893 40.5304 40 40 40H24C23.4696 40 22.9609 39.7893 22.5858 39.4142C22.2107 39.0391 22 38.5304 22 38C22 37.4696 22.2107 36.9609 22.5858 36.5858C22.9609 36.2107 23.4696 36 24 36H40C40.5304 36 41.0391 36.2107 41.4142 36.5858C41.7893 36.9609 42 37.4696 42 38ZM40 28H24C23.4696 28 22.9609 28.2107 22.5858 28.5858C22.2107 28.9609 22 29.4696 22 30C22 30.5304 22.2107 31.0391 22.5858 31.4142C22.9609 31.7893 23.4696 32 24 32H40C40.5304 32 41.0391 31.7893 41.4142 31.4142C41.7893 31.0391 42 30.5304 42 30C42 29.4696 41.7893 28.9609 41.4142 28.5858C41.0391 28.2107 40.5304 28 40 28ZM54 12V54C54 55.0609 53.5786 56.0783 52.8284 56.8284C52.0783 57.5786 51.0609 58 50 58H14C12.9391 58 11.9217 57.5786 11.1716 56.8284C10.4214 56.0783 10 55.0609 10 54V12C10 10.9391 10.4214 9.92172 11.1716 9.17158C11.9217 8.42143 12.9391 8 14 8H23.065C24.1888 6.74181 25.5656 5.73515 27.1053 5.0459C28.6451 4.35665 30.313 4.00037 32 4.00037C33.687 4.00037 35.3549 4.35665 36.8947 5.0459C38.4344 5.73515 39.8112 6.74181 40.935 8H50C51.0609 8 52.0783 8.42143 52.8284 9.17158C53.5786 9.92172 54 10.9391 54 12ZM24 16H40C40 13.8783 39.1571 11.8434 37.6569 10.3431C36.1566 8.84286 34.1217 8 32 8C29.8783 8 27.8434 8.84286 26.3431 10.3431C24.8429 11.8434 24 13.8783 24 16ZM50 12H43.3125C43.7675 13.2845 44 14.6373 44 16V18C44 18.5304 43.7893 19.0391 43.4142 19.4142C43.0391 19.7893 42.5304 20 42 20H22C21.4696 20 20.9609 19.7893 20.5858 19.4142C20.2107 19.0391 20 18.5304 20 18V16C20 14.6373 20.2325 13.2845 20.6875 12H14V54H50V12Z" fill="#797979"/>
</svg>
