<svg width="128" height="128" viewBox="0 0 128 128" fill="none" xmlns="http://www.w3.org/2000/svg">
<path opacity="0.2" d="M116 32V96C116 97.0609 115.579 98.0783 114.828 98.8284C114.078 99.5786 113.061 100 112 100H80C75.7565 100 71.6869 101.686 68.6863 104.686C65.6857 107.687 64 111.757 64 116V44C64 39.7565 65.6857 35.6869 68.6863 32.6863C71.6869 29.6857 75.7565 28 80 28H112C113.061 28 114.078 28.4214 114.828 29.1716C115.579 29.9217 116 30.9391 116 32Z" fill="#E9FCFF"/>
<path d="M112 24H80C76.8951 24 73.8328 24.7229 71.0557 26.1115C68.2786 27.5 65.8629 29.5161 64 32C62.1371 29.5161 59.7214 27.5 56.9443 26.1115C54.1672 24.7229 51.1049 24 48 24H16C13.8783 24 11.8434 24.8429 10.3431 26.3431C8.84285 27.8434 8 29.8783 8 32V96C8 98.1217 8.84285 100.157 10.3431 101.657C11.8434 103.157 13.8783 104 16 104H48C51.1826 104 54.2348 105.264 56.4853 107.515C58.7357 109.765 60 112.817 60 116C60 117.061 60.4214 118.078 61.1716 118.828C61.9217 119.579 62.9391 120 64 120C65.0609 120 66.0783 119.579 66.8284 118.828C67.5786 118.078 68 117.061 68 116C68 112.817 69.2643 109.765 71.5147 107.515C73.7652 105.264 76.8174 104 80 104H112C114.122 104 116.157 103.157 117.657 101.657C119.157 100.157 120 98.1217 120 96V32C120 29.8783 119.157 27.8434 117.657 26.3431C116.157 24.8429 114.122 24 112 24ZM48 96H16V32H48C51.1826 32 54.2348 33.2643 56.4853 35.5147C58.7357 37.7652 60 40.8174 60 44V100C56.5413 97.3974 52.3285 95.9931 48 96ZM112 96H80C75.6715 95.9931 71.4587 97.3974 68 100V44C68 40.8174 69.2643 37.7652 71.5147 35.5147C73.7652 33.2643 76.8174 32 80 32H112V96ZM80 44H100C101.061 44 102.078 44.4214 102.828 45.1716C103.579 45.9217 104 46.9391 104 48C104 49.0609 103.579 50.0783 102.828 50.8284C102.078 51.5786 101.061 52 100 52H80C78.9391 52 77.9217 51.5786 77.1716 50.8284C76.4214 50.0783 76 49.0609 76 48C76 46.9391 76.4214 45.9217 77.1716 45.1716C77.9217 44.4214 78.9391 44 80 44ZM104 64C104 65.0609 103.579 66.0783 102.828 66.8284C102.078 67.5786 101.061 68 100 68H80C78.9391 68 77.9217 67.5786 77.1716 66.8284C76.4214 66.0783 76 65.0609 76 64C76 62.9391 76.4214 61.9217 77.1716 61.1716C77.9217 60.4214 78.9391 60 80 60H100C101.061 60 102.078 60.4214 102.828 61.1716C103.579 61.9217 104 62.9391 104 64ZM104 80C104 81.0609 103.579 82.0783 102.828 82.8284C102.078 83.5786 101.061 84 100 84H80C78.9391 84 77.9217 83.5786 77.1716 82.8284C76.4214 82.0783 76 81.0609 76 80C76 78.9391 76.4214 77.9217 77.1716 77.1716C77.9217 76.4214 78.9391 76 80 76H100C101.061 76 102.078 76.4214 102.828 77.1716C103.579 77.9217 104 78.9391 104 80Z" fill="black"/>
</svg>
