<svg width="128" height="128" viewBox="0 0 128 128" fill="none" xmlns="http://www.w3.org/2000/svg">
<path opacity="0.2" d="M116 60C116 65.3043 113.893 70.3914 110.142 74.1421C106.391 77.8929 101.304 80 96 80H76V40H96C101.304 40 106.391 42.1071 110.142 45.8579C113.893 49.6086 116 54.6957 116 60Z" fill="#E9FCFF"/>
<path d="M120 60C119.993 53.6368 117.463 47.5362 112.963 43.0367C108.464 38.5373 102.363 36.0066 96 36H76.1C74.645 35.915 49.29 34.13 25.145 13.88C23.979 12.9008 22.5578 12.2746 21.0483 12.0751C19.5388 11.8755 18.0038 12.1109 16.6234 12.7536C15.2431 13.3963 14.0748 14.4195 13.2558 15.7031C12.4368 16.9867 12.0012 18.4774 12 20V100C12.0002 101.523 12.4352 103.014 13.2538 104.299C14.0724 105.583 15.2406 106.607 16.6211 107.25C18.0017 107.894 19.5372 108.129 21.0471 107.93C22.557 107.731 23.9787 107.105 25.145 106.125C44.03 90.285 63.645 85.745 72 84.475V100.335C71.9983 101.653 72.3224 102.952 72.9435 104.114C73.5646 105.277 74.4634 106.268 75.56 107L81.06 110.665C82.1231 111.375 83.3407 111.819 84.6109 111.961C85.881 112.104 87.1668 111.939 88.3605 111.483C89.5542 111.026 90.6211 110.29 91.4718 109.336C92.3225 108.382 92.9322 107.238 93.25 106L99.135 83.82C104.909 83.0518 110.207 80.2131 114.045 75.8318C117.883 71.4504 119.999 65.8245 120 60ZM20 99.965V20C41.405 37.955 63.315 42.5 72 43.62V76.36C63.325 77.5 41.42 82.035 20 99.965ZM85.5 103.965V104.02L80 100.355V84H90.8L85.5 103.965ZM96 76H80V44H96C100.243 44 104.313 45.6857 107.314 48.6863C110.314 51.6869 112 55.7565 112 60C112 64.2435 110.314 68.3131 107.314 71.3137C104.313 74.3143 100.243 76 96 76Z" fill="black"/>
</svg>
