<svg width="64" height="64" viewBox="0 0 64 64" fill="none" xmlns="http://www.w3.org/2000/svg">
<path d="M32 20C29.6266 20 27.3065 20.7038 25.3331 22.0224C23.3598 23.3409 21.8217 25.2151 20.9134 27.4078C20.0052 29.6005 19.7675 32.0133 20.2306 34.3411C20.6936 36.6688 21.8365 38.807 23.5147 40.4853C25.1929 42.1635 27.3311 43.3064 29.6589 43.7694C31.9867 44.2324 34.3995 43.9948 36.5922 43.0865C38.7849 42.1783 40.659 40.6402 41.9776 38.6668C43.2962 36.6934 44 34.3734 44 32C43.9967 28.8184 42.7313 25.7681 40.4816 23.5184C38.2319 21.2686 35.1816 20.0033 32 20ZM32 40C30.4177 40 28.871 39.5308 27.5554 38.6517C26.2398 37.7727 25.2145 36.5233 24.609 35.0615C24.0035 33.5996 23.845 31.9911 24.1537 30.4393C24.4624 28.8874 25.2243 27.462 26.3431 26.3431C27.462 25.2243 28.8874 24.4624 30.4393 24.1537C31.9911 23.845 33.5996 24.0035 35.0615 24.609C36.5233 25.2145 37.7727 26.2398 38.6517 27.5554C39.5308 28.871 40 30.4177 40 32C40 34.1217 39.1571 36.1566 37.6568 37.6568C36.1566 39.1571 34.1217 40 32 40ZM54 32.54C54.01 32.18 54.01 31.82 54 31.46L57.73 26.8C57.9256 26.5553 58.0609 26.2681 58.1252 25.9616C58.1895 25.655 58.1808 25.3376 58.1 25.035C57.4885 22.7365 56.5738 20.5296 55.38 18.4725C55.2237 18.2033 55.0067 17.9743 54.7463 17.8037C54.4859 17.6332 54.1892 17.5257 53.88 17.49L47.95 16.83C47.7033 16.57 47.4533 16.32 47.2 16.08L46.5 10.135C46.464 9.82552 46.3562 9.52874 46.1852 9.26832C46.0142 9.00789 45.7847 8.79102 45.515 8.63499C43.4571 7.44336 41.2504 6.52958 38.9525 5.91749C38.6497 5.83698 38.3322 5.82875 38.0256 5.89345C37.719 5.95816 37.4319 6.09398 37.1875 6.28999L32.54 9.99999C32.18 9.99999 31.82 9.99999 31.46 9.99999L26.8 6.27749C26.5553 6.08191 26.2681 5.94654 25.9616 5.88227C25.655 5.818 25.3376 5.82664 25.035 5.90749C22.7369 6.52006 20.5301 7.4347 18.4725 8.62749C18.2033 8.78381 17.9743 9.00081 17.8037 9.26121C17.6332 9.52162 17.5257 9.81825 17.49 10.1275L16.83 16.0675C16.57 16.3158 16.32 16.5658 16.08 16.8175L10.135 17.5C9.82552 17.536 9.52874 17.6438 9.26832 17.8148C9.00789 17.9858 8.79102 18.2153 8.63499 18.485C7.44336 20.5429 6.52958 22.7496 5.91749 25.0475C5.83698 25.3503 5.82875 25.6678 5.89345 25.9744C5.95816 26.281 6.09398 26.568 6.28999 26.8125L9.99999 31.46C9.99999 31.82 9.99999 32.18 9.99999 32.54L6.27749 37.2C6.08191 37.4447 5.94654 37.7319 5.88227 38.0384C5.818 38.345 5.82664 38.6624 5.90749 38.965C6.51897 41.2635 7.43366 43.4704 8.62749 45.5275C8.78381 45.7967 9.00081 46.0257 9.26121 46.1963C9.52162 46.3668 9.81825 46.4743 10.1275 46.51L16.0575 47.17C16.3058 47.43 16.5558 47.68 16.8075 47.92L17.5 53.865C17.536 54.1745 17.6438 54.4712 17.8148 54.7317C17.9858 54.9921 18.2153 55.209 18.485 55.365C20.5429 56.5566 22.7496 57.4704 25.0475 58.0825C25.3503 58.163 25.6678 58.1712 25.9744 58.1065C26.281 58.0418 26.568 57.906 26.8125 57.71L31.46 54C31.82 54.01 32.18 54.01 32.54 54L37.2 57.73C37.4447 57.9256 37.7319 58.0609 38.0384 58.1252C38.345 58.1895 38.6624 58.1808 38.965 58.1C41.2635 57.4885 43.4704 56.5738 45.5275 55.38C45.7967 55.2237 46.0257 55.0067 46.1963 54.7463C46.3668 54.4859 46.4743 54.1892 46.51 53.88L47.17 47.95C47.43 47.7033 47.68 47.4533 47.92 47.2L53.865 46.5C54.1745 46.464 54.4712 46.3562 54.7317 46.1852C54.9921 46.0142 55.209 45.7847 55.365 45.515C56.5566 43.4571 57.4704 41.2504 58.0825 38.9525C58.163 38.6497 58.1712 38.3322 58.1065 38.0256C58.0418 37.719 57.906 37.4319 57.71 37.1875L54 32.54ZM49.975 30.915C50.0175 31.6377 50.0175 32.3623 49.975 33.085C49.9452 33.5798 50.1002 34.068 50.41 34.455L53.9575 38.8875C53.5504 40.1812 53.0292 41.4361 52.4 42.6375L46.75 43.2775C46.258 43.3321 45.8037 43.5673 45.475 43.9375C44.9938 44.4787 44.4812 44.9913 43.94 45.4725C43.5698 45.8012 43.3346 46.2555 43.28 46.7475L42.6525 52.3925C41.4512 53.022 40.1963 53.5432 38.9025 53.95L34.4675 50.4025C34.1126 50.1189 33.6718 49.9646 33.2175 49.965H33.0975C32.3748 50.0075 31.6502 50.0075 30.9275 49.965C30.4327 49.9352 29.9445 50.0902 29.5575 50.4L25.1125 53.95C23.8188 53.5429 22.5639 53.0217 21.3625 52.3925L20.7225 46.75C20.6679 46.258 20.4327 45.8037 20.0625 45.475C19.5213 44.9938 19.0087 44.4812 18.5275 43.94C18.1988 43.5698 17.7445 43.3346 17.2525 43.28L11.6075 42.65C10.978 41.4487 10.4567 40.1938 10.05 38.9L13.5975 34.465C13.9073 34.078 14.0623 33.5898 14.0325 33.095C13.99 32.3723 13.99 31.6477 14.0325 30.925C14.0623 30.4302 13.9073 29.942 13.5975 29.555L10.05 25.1125C10.4571 23.8188 10.9783 22.5639 11.6075 21.3625L17.25 20.7225C17.742 20.6679 18.1963 20.4327 18.525 20.0625C19.0062 19.5213 19.5188 19.0087 20.06 18.5275C20.4317 18.1986 20.6678 17.7433 20.7225 17.25L21.35 11.6075C22.5513 10.978 23.8062 10.4567 25.1 10.05L29.535 13.5975C29.922 13.9073 30.4102 14.0623 30.905 14.0325C31.6277 13.99 32.3523 13.99 33.075 14.0325C33.5698 14.0623 34.058 13.9073 34.445 13.5975L38.8875 10.05C40.1812 10.4571 41.4361 10.9783 42.6375 11.6075L43.2775 17.25C43.3321 17.742 43.5673 18.1963 43.9375 18.525C44.4787 19.0062 44.9913 19.5188 45.4725 20.06C45.8012 20.4302 46.2555 20.6654 46.7475 20.72L52.3925 21.3475C53.022 22.5487 53.5432 23.8037 53.95 25.0975L50.4025 29.5325C50.0897 29.9227 49.9345 30.416 49.9675 30.915H49.975Z" fill="#3E1E68"/>
</svg>
