<svg width="64" height="64" viewBox="0 0 64 64" fill="none" xmlns="http://www.w3.org/2000/svg">
<path d="M44 58C44 58.5305 43.7892 59.0392 43.4142 59.4143C43.0391 59.7893 42.5304 60 42 60H22C21.4695 60 20.9608 59.7893 20.5857 59.4143C20.2107 59.0392 20 58.5305 20 58C20 57.4696 20.2107 56.9609 20.5857 56.5858C20.9608 56.2108 21.4695 56 22 56H42C42.5304 56 43.0391 56.2108 43.4142 56.5858C43.7892 56.9609 44 57.4696 44 58ZM54 26C54.0086 29.3341 53.2554 32.6262 51.7979 35.6248C50.3403 38.6235 48.217 41.2495 45.59 43.3025C45.0987 43.6791 44.7001 44.1629 44.4245 44.7171C44.149 45.2713 44.0037 45.8811 44 46.5V48C44 49.0609 43.5785 50.0783 42.8284 50.8285C42.0782 51.5786 41.0608 52 40 52H24C22.9391 52 21.9217 51.5786 21.1715 50.8285C20.4214 50.0783 20 49.0609 20 48V46.5C19.9996 45.8885 19.8589 45.2853 19.5889 44.7366C19.3189 44.1879 18.9267 43.7084 18.4425 43.335C15.822 41.2942 13.7001 38.6839 12.2374 35.7018C10.7747 32.7197 10.0096 29.444 9.99996 26.1225C9.93496 14.2075 19.565 4.28504 31.47 4.00004C34.4033 3.92935 37.3212 4.44617 40.0518 5.52008C42.7825 6.59399 45.2707 8.20329 47.3701 10.2533C49.4694 12.3032 51.1375 14.7525 52.2761 17.4568C53.4147 20.1611 54.0008 23.0658 54 26ZM50 26C50.0007 23.5992 49.5211 21.2225 48.5894 19.0098C47.6577 16.7971 46.2928 14.7931 44.575 13.1158C42.8572 11.4385 40.8212 10.1219 38.5869 9.24331C36.3526 8.36473 33.9651 7.94202 31.565 8.00004C21.815 8.23004 13.9475 16.3475 14 26.0975C14.0091 28.814 14.6359 31.4928 15.8331 33.9313C17.0302 36.3697 18.7663 38.504 20.91 40.1725C21.8736 40.9216 22.653 41.8813 23.1886 42.978C23.7242 44.0748 24.0017 45.2795 24 46.5V48H40V46.5C40.0027 45.276 40.285 44.0688 40.8253 42.9705C41.3656 41.8722 42.1496 40.9118 43.1175 40.1625C45.2677 38.4821 47.0056 36.3326 48.1984 33.8781C49.3912 31.4236 50.0074 28.729 50 26ZM45.9725 23.665C45.4539 20.7683 44.0602 18.0999 41.9791 16.0193C39.898 13.9386 37.2293 12.5455 34.3325 12.0275C34.0734 11.9839 33.8083 11.9917 33.5523 12.0504C33.2963 12.1092 33.0543 12.2179 32.8403 12.3702C32.6263 12.5224 32.4443 12.7154 32.3049 12.938C32.1654 13.1606 32.0711 13.4085 32.0275 13.6675C31.9838 13.9266 31.9916 14.1917 32.0504 14.4477C32.1092 14.7037 32.2178 14.9457 32.3701 15.1597C32.5224 15.3737 32.7153 15.5557 32.9379 15.6951C33.1605 15.8346 33.4084 15.9289 33.6675 15.9725C37.81 16.67 41.325 20.185 42.0275 24.335C42.1066 24.8008 42.3481 25.2236 42.7091 25.5284C43.0702 25.8331 43.5275 26.0002 44 26C44.113 25.9994 44.2258 25.9902 44.3375 25.9725C44.8602 25.8833 45.3262 25.5901 45.6328 25.1573C45.9394 24.7246 46.0616 24.1878 45.9725 23.665Z" fill="#3E1E68"/>
</svg>
