<svg width="64" height="64" viewBox="0 0 64 64" fill="none" xmlns="http://www.w3.org/2000/svg">
<path d="M34 20V30.8675L43.03 36.285C43.4848 36.5582 43.8125 37.0008 43.941 37.5156C44.0695 38.0304 43.9882 38.5751 43.715 39.03C43.4418 39.4848 42.9992 39.8125 42.4844 39.941C41.9696 40.0695 41.4248 39.9882 40.97 39.715L30.97 33.715C30.674 33.5372 30.4291 33.2858 30.2592 32.9852C30.0892 32.6847 29.9999 32.3453 30 32V20C30 19.4696 30.2107 18.9609 30.5858 18.5858C30.9609 18.2107 31.4696 18 32 18C32.5304 18 33.0391 18.2107 33.4142 18.5858C33.7893 18.9609 34 19.4696 34 20ZM56 14C55.4696 14 54.9609 14.2107 54.5858 14.5858C54.2107 14.9609 54 15.4696 54 16V20.5C52.4125 18.66 50.7925 16.8875 48.97 15.0425C45.6346 11.7068 41.3902 9.42789 36.7671 8.49063C32.1439 7.55337 27.3471 7.99929 22.976 9.77266C18.6048 11.546 14.8532 14.5682 12.1898 18.4616C9.52649 22.355 8.06954 26.9469 8.00104 31.6636C7.93253 36.3803 9.2555 41.0126 11.8047 44.9816C14.3538 48.9507 18.0161 52.0806 22.3339 53.9802C26.6517 55.8797 31.4335 56.4648 36.0819 55.6622C40.7303 54.8596 45.0392 52.705 48.47 49.4675C48.6611 49.2869 48.8147 49.0705 48.9221 48.8305C49.0296 48.5906 49.0887 48.3319 49.0961 48.0691C49.1035 47.8063 49.0591 47.5446 48.9654 47.299C48.8717 47.0533 48.7306 46.8286 48.55 46.6375C48.3694 46.4464 48.153 46.2928 47.9131 46.1854C47.6731 46.0779 47.4144 46.0188 47.1516 46.0114C46.8888 46.004 46.6271 46.0484 46.3815 46.1421C46.1358 46.2358 45.9111 46.3769 45.72 46.5575C42.8601 49.2527 39.2696 51.0456 35.3968 51.7124C31.524 52.3792 27.5406 51.8903 23.944 50.3068C20.3474 48.7233 17.297 46.1153 15.1738 42.8085C13.0505 39.5017 11.9485 35.6427 12.0053 31.7134C12.0621 27.784 13.2752 23.9585 15.4932 20.7144C17.7111 17.4704 20.8356 14.9517 24.4765 13.4728C28.1174 11.9939 32.1132 11.6203 35.9651 12.3988C39.817 13.1773 43.3542 15.0733 46.135 17.85C48.17 19.91 49.9525 21.895 51.75 24H46C45.4696 24 44.9609 24.2107 44.5858 24.5858C44.2107 24.9609 44 25.4696 44 26C44 26.5304 44.2107 27.0391 44.5858 27.4142C44.9609 27.7893 45.4696 28 46 28H56C56.5304 28 57.0391 27.7893 57.4142 27.4142C57.7893 27.0391 58 26.5304 58 26V16C58 15.4696 57.7893 14.9609 57.4142 14.5858C57.0391 14.2107 56.5304 14 56 14Z" fill="#686354"/>
</svg>
