<svg width="64" height="64" viewBox="0 0 64 64" fill="none" xmlns="http://www.w3.org/2000/svg">
<path d="M57.0625 15.7675L55.8975 15.095C56.0342 14.3714 56.0342 13.6286 55.8975 12.905L57.0625 12.2325C57.522 11.9673 57.8573 11.5304 57.9947 11.018C58.132 10.5055 58.0602 9.95949 57.795 9.5C57.5298 9.04051 57.0929 8.7052 56.5805 8.56783C56.068 8.43046 55.522 8.50228 55.0625 8.7675L53.895 9.4425C53.3363 8.96314 52.6938 8.59107 52 8.345V7C52 6.46957 51.7893 5.96086 51.4142 5.58579C51.0391 5.21071 50.5304 5 50 5C49.4696 5 48.9609 5.21071 48.5858 5.58579C48.2107 5.96086 48 6.46957 48 7V8.345C47.3062 8.59107 46.6637 8.96314 46.105 9.4425L44.9375 8.7675C44.71 8.63618 44.4588 8.55095 44.1984 8.5167C43.9379 8.48244 43.6733 8.49981 43.4195 8.56783C43.1658 8.63585 42.928 8.75318 42.7196 8.91312C42.5112 9.07306 42.3363 9.27248 42.205 9.5C42.0737 9.72752 41.9885 9.97867 41.9542 10.2391C41.9199 10.4996 41.9373 10.7642 42.0053 11.018C42.0733 11.2717 42.1907 11.5095 42.3506 11.7179C42.5106 11.9263 42.71 12.1012 42.9375 12.2325L44.1025 12.905C43.9658 13.6286 43.9658 14.3714 44.1025 15.095L42.9375 15.7675C42.556 15.9875 42.2578 16.3273 42.0891 16.7342C41.9205 17.141 41.8909 17.5922 42.0048 18.0176C42.1188 18.443 42.37 18.8189 42.7195 19.0869C43.0689 19.355 43.4971 19.5002 43.9375 19.5C44.2887 19.5011 44.6338 19.4088 44.9375 19.2325L46.105 18.5575C46.6637 19.0369 47.3062 19.4089 48 19.655V21C48 21.5304 48.2107 22.0391 48.5858 22.4142C48.9609 22.7893 49.4696 23 50 23C50.5304 23 51.0391 22.7893 51.4142 22.4142C51.7893 22.0391 52 21.5304 52 21V19.655C52.6938 19.4089 53.3363 19.0369 53.895 18.5575L55.0625 19.2325C55.3662 19.4088 55.7113 19.5011 56.0625 19.5C56.5029 19.5002 56.9311 19.355 57.2805 19.0869C57.63 18.8189 57.8812 18.443 57.9951 18.0176C58.1091 17.5922 58.0795 17.141 57.9109 16.7342C57.7422 16.3273 57.444 15.9875 57.0625 15.7675ZM48 14C48 13.6044 48.1173 13.2178 48.3371 12.8889C48.5568 12.56 48.8692 12.3036 49.2346 12.1522C49.6001 12.0009 50.0022 11.9613 50.3902 12.0384C50.7781 12.1156 51.1345 12.3061 51.4142 12.5858C51.6939 12.8655 51.8844 13.2219 51.9616 13.6098C52.0387 13.9978 51.9991 14.3999 51.8478 14.7654C51.6964 15.1308 51.44 15.4432 51.1111 15.6629C50.7822 15.8827 50.3956 16 50 16C49.4696 16 48.9609 15.7893 48.5858 15.4142C48.2107 15.0391 48 14.5304 48 14ZM55.3375 26.0275C54.8144 26.115 54.3474 26.4068 54.0394 26.8386C53.7314 27.2704 53.6075 27.8069 53.695 28.33C53.8981 29.5428 54.0001 30.7703 54 32C54.0047 37.3855 52.0254 42.584 48.44 46.6025C46.2094 43.3702 43.073 40.8695 39.425 39.415C41.3845 37.8716 42.8144 35.756 43.5158 33.3622C44.2172 30.9685 44.1552 28.4157 43.3385 26.0589C42.5218 23.702 40.991 21.6582 38.9588 20.2117C36.9267 18.7652 34.4944 17.9879 32 17.9879C29.5056 17.9879 27.0733 18.7652 25.0412 20.2117C23.009 21.6582 21.4782 23.702 20.6615 26.0589C19.8448 28.4157 19.7828 30.9685 20.4842 33.3622C21.1856 35.756 22.6155 37.8716 24.575 39.415C20.927 40.8695 17.7906 43.3702 15.56 46.6025C12.7468 43.4324 10.9092 39.5172 10.2681 35.3276C9.62704 31.138 10.2098 26.8524 11.9463 22.9862C13.6829 19.1199 16.4992 15.8375 20.0568 13.5338C23.6144 11.23 27.7617 10.0029 32 10C33.2297 9.9998 34.4572 10.1018 35.67 10.305C36.1908 10.3872 36.7229 10.2604 37.1507 9.95222C37.5785 9.64406 37.8673 9.17945 37.9543 8.65946C38.0413 8.13946 37.9194 7.60615 37.6153 7.17553C37.3111 6.74491 36.8492 6.45181 36.33 6.36C30.8986 5.44629 25.3173 6.28234 20.3921 8.74744C15.4668 11.2125 11.4524 15.1791 8.92846 20.0745C6.40451 24.9699 5.50163 30.5407 6.35019 35.9826C7.19874 41.4246 9.75482 46.4561 13.6494 50.3506C17.5439 54.2452 22.5754 56.8013 28.0173 57.6498C33.4593 58.4984 39.0301 57.5955 43.9255 55.0715C48.8209 52.5476 52.7875 48.5332 55.2526 43.6079C57.7177 38.6826 58.5537 33.1014 57.64 27.67C57.5525 27.1469 57.2607 26.6799 56.8289 26.3719C56.3971 26.0639 55.8606 25.94 55.3375 26.0275ZM24 30C24 28.4177 24.4692 26.871 25.3482 25.5554C26.2273 24.2398 27.4767 23.2145 28.9385 22.609C30.4003 22.0035 32.0089 21.845 33.5607 22.1537C35.1126 22.4624 36.538 23.2243 37.6569 24.3431C38.7757 25.462 39.5376 26.8874 39.8463 28.4393C40.155 29.9911 39.9965 31.5997 39.391 33.0615C38.7855 34.5233 37.7602 35.7727 36.4446 36.6518C35.129 37.5308 33.5822 38 32 38C29.8783 38 27.8434 37.1571 26.3431 35.6569C24.8429 34.1566 24 32.1217 24 30ZM18.52 49.375C19.9668 47.1122 21.96 45.25 24.3158 43.9601C26.6716 42.6702 29.3142 41.9941 32 41.9941C34.6858 41.9941 37.3284 42.6702 39.6842 43.9601C42.04 45.25 44.0332 47.1122 45.48 49.375C41.6258 52.3725 36.8826 53.9998 32 53.9998C27.1174 53.9998 22.3742 52.3725 18.52 49.375Z" fill="#686354"/>
</svg>
