<svg width="48" height="48" viewBox="0 0 48 48" fill="none" xmlns="http://www.w3.org/2000/svg">
<path d="M40.5 7.5H7.5C6.70435 7.5 5.94129 7.81607 5.37868 8.37868C4.81607 8.94129 4.5 9.70435 4.5 10.5V37.5C4.5 38.2956 4.81607 39.0587 5.37868 39.6213C5.94129 40.1839 6.70435 40.5 7.5 40.5H40.5C41.2957 40.5 42.0587 40.1839 42.6213 39.6213C43.1839 39.0587 43.5 38.2956 43.5 37.5V10.5C43.5 9.70435 43.1839 8.94129 42.6213 8.37868C42.0587 7.81607 41.2957 7.5 40.5 7.5ZM40.5 10.5V13.5H7.5V10.5H40.5ZM40.5 37.5H7.5V16.5H40.5V37.5ZM33 21C33 23.3869 32.0518 25.6761 30.364 27.364C28.6761 29.0518 26.3869 30 24 30C21.6131 30 19.3239 29.0518 17.636 27.364C15.9482 25.6761 15 23.3869 15 21C15 20.6022 15.158 20.2206 15.4393 19.9393C15.7206 19.658 16.1022 19.5 16.5 19.5C16.8978 19.5 17.2794 19.658 17.5607 19.9393C17.842 20.2206 18 20.6022 18 21C18 22.5913 18.6321 24.1174 19.7574 25.2426C20.8826 26.3679 22.4087 27 24 27C25.5913 27 27.1174 26.3679 28.2426 25.2426C29.3679 24.1174 30 22.5913 30 21C30 20.6022 30.158 20.2206 30.4393 19.9393C30.7206 19.658 31.1022 19.5 31.5 19.5C31.8978 19.5 32.2794 19.658 32.5607 19.9393C32.842 20.2206 33 20.6022 33 21Z" fill="#432F44"/>
</svg>
