<svg width="64" height="64" viewBox="0 0 64 64" fill="none" xmlns="http://www.w3.org/2000/svg">
<path d="M32 6C26.8577 6 21.8309 7.52487 17.5552 10.3818C13.2795 13.2387 9.94701 17.2994 7.97913 22.0502C6.01125 26.8011 5.49637 32.0288 6.49958 37.0723C7.5028 42.1159 9.97906 46.7486 13.6152 50.3848C17.2514 54.0209 21.8841 56.4972 26.9277 57.5004C31.9712 58.5036 37.1989 57.9887 41.9498 56.0209C46.7006 54.053 50.7613 50.7205 53.6182 46.4448C56.4751 42.1691 58 37.1423 58 32C57.9927 25.1066 55.2511 18.4976 50.3767 13.6233C45.5024 8.74889 38.8934 6.00728 32 6ZM53.9075 30H47.87C47.4211 26.4783 45.8154 23.2054 43.305 20.695C40.7946 18.1846 37.5217 16.5789 34 16.13V10.0925C39.1197 10.5665 43.9125 12.8162 47.5482 16.4518C51.1838 20.0875 53.4335 24.8803 53.9075 30ZM30 30H20.17C20.5887 27.5452 21.7593 25.281 23.5202 23.5202C25.281 21.7593 27.5452 20.5887 30 20.17V30ZM30 34V43.83C27.5452 43.4113 25.281 42.2407 23.5202 40.4798C21.7593 38.719 20.5887 36.4548 20.17 34H30ZM34 34H43.83C43.4113 36.4548 42.2407 38.719 40.4798 40.4798C38.719 42.2407 36.4548 43.4113 34 43.83V34ZM34 30V20.17C36.4548 20.5887 38.719 21.7593 40.4798 23.5202C42.2407 25.281 43.4113 27.5452 43.83 30H34ZM30 10.0925V16.13C26.4783 16.5789 23.2054 18.1846 20.695 20.695C18.1846 23.2054 16.5789 26.4783 16.13 30H10.0925C10.5665 24.8803 12.8162 20.0875 16.4518 16.4518C20.0875 12.8162 24.8803 10.5665 30 10.0925ZM10.0925 34H16.13C16.5789 37.5217 18.1846 40.7946 20.695 43.305C23.2054 45.8154 26.4783 47.4211 30 47.87V53.9075C24.8803 53.4335 20.0875 51.1838 16.4518 47.5482C12.8162 43.9125 10.5665 39.1197 10.0925 34ZM34 53.9075V47.87C37.5217 47.4211 40.7946 45.8154 43.305 43.305C45.8154 40.7946 47.4211 37.5217 47.87 34H53.9075C53.4335 39.1197 51.1838 43.9125 47.5482 47.5482C43.9125 51.1838 39.1197 53.4335 34 53.9075Z" fill="#686354"/>
</svg>
