<svg width="64" height="64" viewBox="0 0 64 64" fill="none" xmlns="http://www.w3.org/2000/svg">
<path d="M50.4725 13.665C48.08 11.2484 45.2343 9.32754 42.0985 8.01227C38.9626 6.69699 35.598 6.01319 32.1975 6H32C25.1044 6 18.4912 8.73928 13.6152 13.6152C8.73928 18.4912 6 25.1044 6 32V46C6 47.5913 6.63214 49.1174 7.75736 50.2426C8.88258 51.3679 10.4087 52 12 52H16C17.5913 52 19.1174 51.3679 20.2426 50.2426C21.3679 49.1174 22 47.5913 22 46V36C22 34.4087 21.3679 32.8826 20.2426 31.7574C19.1174 30.6321 17.5913 30 16 30H10.09C10.4757 25.8298 12.0421 21.856 14.6056 18.5443C17.169 15.2325 20.6234 12.7201 24.5637 11.3014C28.5041 9.88275 32.7672 9.61663 36.8534 10.5343C40.9396 11.4519 44.6796 13.5153 47.635 16.4825C51.2472 20.1133 53.4691 24.8977 53.9125 30H48C46.4087 30 44.8826 30.6321 43.7574 31.7574C42.6321 32.8826 42 34.4087 42 36V46C42 47.5913 42.6321 49.1174 43.7574 50.2426C44.8826 51.3679 46.4087 52 48 52H54C54 53.5913 53.3679 55.1174 52.2426 56.2426C51.1174 57.3679 49.5913 58 48 58H34C33.4696 58 32.9609 58.2107 32.5858 58.5858C32.2107 58.9609 32 59.4696 32 60C32 60.5304 32.2107 61.0391 32.5858 61.4142C32.9609 61.7893 33.4696 62 34 62H48C50.6522 62 53.1957 60.9464 55.0711 59.0711C56.9464 57.1957 58 54.6522 58 52V32C58.013 28.5989 57.3548 25.2287 56.0631 22.0825C54.7714 18.9362 52.8716 16.0758 50.4725 13.665ZM16 34C16.5304 34 17.0391 34.2107 17.4142 34.5858C17.7893 34.9609 18 35.4696 18 36V46C18 46.5304 17.7893 47.0391 17.4142 47.4142C17.0391 47.7893 16.5304 48 16 48H12C11.4696 48 10.9609 47.7893 10.5858 47.4142C10.2107 47.0391 10 46.5304 10 46V34H16ZM48 48C47.4696 48 46.9609 47.7893 46.5858 47.4142C46.2107 47.0391 46 46.5304 46 46V36C46 35.4696 46.2107 34.9609 46.5858 34.5858C46.9609 34.2107 47.4696 34 48 34H54V48H48Z" fill="#686354"/>
</svg>
