<svg width="64" height="64" viewBox="0 0 64 64" fill="none" xmlns="http://www.w3.org/2000/svg">
<path d="M33.1 47.6751L45.7 55.6751C47.325 56.7001 49.325 55.1751 48.85 53.3001L45.2 38.9501C45.1013 38.5523 45.117 38.1348 45.2453 37.7455C45.3735 37.3563 45.6091 37.0112 45.925 36.7501L57.225 27.3251C58.7 26.1001 57.95 23.6251 56.025 23.5001L41.275 22.5501C40.8725 22.5266 40.4856 22.3865 40.1615 22.1468C39.8374 21.907 39.5902 21.578 39.45 21.2001L33.95 7.35006C33.8044 6.94982 33.5392 6.60407 33.1903 6.35975C32.8415 6.11543 32.4259 5.98438 32 5.98438C31.5741 5.98438 31.1585 6.11543 30.8097 6.35975C30.4608 6.60407 30.1956 6.94982 30.05 7.35006L24.55 21.2001C24.4098 21.578 24.1626 21.907 23.8385 22.1468C23.5144 22.3865 23.1274 22.5266 22.725 22.5501L7.97499 23.5001C6.04999 23.6251 5.29999 26.1001 6.77499 27.3251L18.075 36.7501C18.3908 37.0112 18.6265 37.3563 18.7547 37.7455C18.883 38.1348 18.8987 38.5523 18.8 38.9501L15.425 52.2501C14.85 54.5001 17.25 56.3251 19.175 55.1001L30.9 47.6751C31.2288 47.466 31.6104 47.3549 32 47.3549C32.3896 47.3549 32.7712 47.466 33.1 47.6751Z" fill="#5F5F5F"/>
<path d="M33.1 47.6751L45.7 55.6751C47.325 56.7001 49.325 55.1751 48.85 53.3001L45.2 38.9501C45.1013 38.5523 45.117 38.1347 45.2453 37.7455C45.3735 37.3563 45.6092 37.0112 45.925 36.7501L57.225 27.3251C58.7 26.1001 57.95 23.6251 56.025 23.5001L41.275 22.5501C40.8725 22.5266 40.4856 22.3865 40.1615 22.1468C39.8374 21.907 39.5902 21.578 39.45 21.2001L33.95 7.35006C33.8044 6.94982 33.5392 6.60407 33.1903 6.35975C32.8415 6.11543 32.4259 5.98438 32 5.98438C31.5741 5.98438 31.1585 6.11543 30.8097 6.35975C30.4608 6.60407 30.1956 6.94982 30.05 7.35006L24.55 21.2001C24.4098 21.578 24.1626 21.907 23.8385 22.1468C23.5144 22.3865 23.1274 22.5266 22.725 22.5501L7.97499 23.5001C6.04999 23.6251 5.29999 26.1001 6.77499 27.3251L18.075 36.7501C18.3908 37.0112 18.6265 37.3563 18.7547 37.7455C18.883 38.1347 18.8987 38.5523 18.8 38.9501L15.425 52.2501C14.85 54.5001 17.25 56.3251 19.175 55.1001L30.9 47.6751C31.2288 47.466 31.6104 47.3549 32 47.3549C32.3896 47.3549 32.7712 47.466 33.1 47.6751Z" stroke="black" stroke-width="2" stroke-linecap="round" stroke-linejoin="round"/>
</svg>
